<svg width="94" height="102" viewBox="0 0 94 102" fill="none" xmlns="http://www.w3.org/2000/svg">
<g clip-path="url(#clip0_110_3)">
<path fill-rule="evenodd" clip-rule="evenodd" d="M63.76 48.24C60.432 51.3973 55.8667 52.976 50.064 52.976H49.9128L39.568 52.848L37.008 57.968L43.024 62.32C49.5094 62.6613 56.1227 61.3387 62.864 58.352C69.6054 55.3653 75.152 51.2267 79.504 45.936C83.856 40.6453 86.032 35.0133 86.032 29.04C86.032 23.664 84.752 18.7573 82.192 14.32C79.632 9.88267 76.0054 6.42667 71.312 3.952C66.704 1.392 61.4134 0.112 55.44 0.112C52.624 0.112 48.2294 0.282667 42.256 0.624001C34.2347 1.136 26.0854 1.39201 17.808 1.39201H2.96002L0.400024 6.512L13.712 10.864V39.7374L29.712 52.0685V13.424C34.4907 10.096 39.7814 8.43201 45.584 8.43201C53.1787 8.43201 58.9387 10.9493 62.864 15.984C66.8747 20.9333 68.88 27.3333 68.88 35.184C68.88 40.7307 67.1734 45.0827 63.76 48.24ZM13.712 50.1527V42.8487L29.707 55.0391L29.712 55.0405V55.0522L94.5 102H66L29.712 65.712V65.7238L13.712 50.1527ZM13.712 53.5851V88.688L1.68002 98.16V102.128H46.992L49.552 97.008L29.712 91.504V69.2295L13.712 53.5851Z" fill="url(#paint0_linear_110_3)"/>
</g>
<defs>
<linearGradient id="paint0_linear_110_3" x1="0.999997" y1="3.02049e-06" x2="118.5" y2="69" gradientUnits="userSpaceOnUse">
<stop stop-color="#557BF3"/>
<stop offset="1" stop-color="#B06AB3"/>
</linearGradient>
<clipPath id="clip0_110_3">
<rect width="94" height="102" fill="white"/>
</clipPath>
</defs>
</svg>
